<?xml version="1.0" encoding="utf-8"?>
<!-- Generator: Adobe Illustrator 16.0.3, SVG Export Plug-In . SVG Version: 6.00 Build 0)  -->
<!DOCTYPE svg PUBLIC "-//W3C//DTD SVG 1.1//EN" "http://www.w3.org/Graphics/SVG/1.1/DTD/svg11.dtd">
<svg version="1.1" id="Layer_1" xmlns="http://www.w3.org/2000/svg" xmlns:xlink="http://www.w3.org/1999/xlink" x="0px" y="0px"
	 width="1792px" height="1792px" viewBox="0 0 1792 1792" enable-background="new 0 0 1792 1792" xml:space="preserve">
<circle fill="#E0E0E0" cx="896" cy="896" r="896"/>
<path fill="#757575" d="M960,352v1088c0,17.333-6.333,32.333-19,45s-27.667,19-45,19s-32.333-6.333-45-19l-333-333H256
	c-17.333,0-32.333-6.333-45-19s-19-27.667-19-45V704c0-17.333,6.333-32.333,19-45s27.667-19,45-19h262l333-333
	c12.667-12.667,27.667-19,45-19s32.333,6.333,45,19S960,334.667,960,352z M1344,896c0,50.667-14.167,97.833-42.5,141.5
	s-65.833,74.833-112.5,93.5c-6.667,3.333-15,5-25,5c-17.333,0-32.333-6.167-45-18.5s-19-27.5-19-45.5c0-14,4-25.833,12-35.5
	s17.667-18,29-25s22.667-14.667,34-23s21-20.333,29-36s12-34.5,12-56.5s-4-40.833-12-56.5s-17.667-27.667-29-36s-22.667-16-34-23
	s-21-15.333-29-25s-12-21.5-12-35.5c0-18,6.333-33.167,19-45.5s27.667-18.5,45-18.5c10,0,18.333,1.667,25,5
	c46.667,18,84.167,49,112.5,93S1344,845.333,1344,896z M1600,896c0,102-28.333,196.167-85,282.5s-131.667,149.167-225,188.5
	c-8.667,3.333-17,5-25,5c-18,0-33.333-6.333-46-19s-19-27.667-19-45c0-26,13-45.667,39-59c37.333-19.333,62.667-34,76-44
	c49.333-36,87.833-81.167,115.5-135.5S1472,957.333,1472,896s-13.833-119.167-41.5-173.5S1364.333,623,1315,587
	c-13.333-10-38.667-24.667-76-44c-26-13.333-39-33-39-59c0-17.333,6.333-32.333,19-45s27.667-19,45-19c8.667,0,17.333,1.667,26,5
	c93.333,39.333,168.333,102.167,225,188.5S1600,794,1600,896z"/>
</svg>
