<?xml version="1.0" standalone="no"?>
<!DOCTYPE svg PUBLIC "-//W3C//DTD SVG 20010904//EN"
 "http://www.w3.org/TR/2001/REC-SVG-20010904/DTD/svg10.dtd">
<svg version="1.0" xmlns="http://www.w3.org/2000/svg"
 width="439.000000pt" height="439.000000pt" viewBox="0 0 439.000000 439.000000"
 preserveAspectRatio="xMidYMid meet">
<metadata>
Created by potrace 1.11, written by Peter Selinger 2001-2013
</metadata>
<g transform="translate(0.000000,439.000000) scale(0.100000,-0.100000)"
fill="#000000" stroke="none">
<path d="M1830 3711 l0 -80 -57 -16 c-169 -49 -375 -177 -523 -325 -238 -238
-363 -524 -386 -884 l-7 -106 187 0 c124 0 186 4 186 11 0 5 5 7 10 4 6 -3 10
-50 10 -106 l0 -101 -192 4 -193 3 -3 -73 -3 -73 196 3 195 3 0 -97 0 -98
-195 0 -196 0 3 -72 3 -73 193 3 192 3 0 -95 0 -96 -195 0 -195 0 0 -260 0
-260 230 0 230 0 0 -235 0 -235 865 0 865 0 0 235 0 235 230 0 230 0 0 260 0
260 -195 0 -195 0 0 96 0 95 193 -3 192 -3 3 73 3 72 -196 0 -195 0 0 95 0 95
195 0 196 0 -3 73 -3 72 -192 -4 -193 -3 0 98 0 99 196 -3 197 -4 -8 114 c-13
212 -53 364 -140 538 -72 143 -141 238 -254 350 -142 140 -340 262 -513 316
l-57 17 -3 81 -3 81 -140 -218 c-77 -120 -155 -239 -173 -263 -31 -41 -36 -44
-50 -31 -10 8 -26 17 -37 20 -15 4 -16 5 -3 6 14 1 10 12 -21 59 -21 31 -91
139 -156 240 -65 100 -119 182 -121 182 -2 0 -4 -36 -4 -79z m197 -247 c-3 -3
-12 -4 -19 -1 -8 3 -5 6 6 6 11 1 17 -2 13 -5z m-50 -10 c-3 -3 -12 -4 -19 -1
-8 3 -5 6 6 6 11 1 17 -2 13 -5z m446 -1 c-7 -2 -19 -2 -25 0 -7 3 -2 5 12 5
14 0 19 -2 13 -5z m182 -53 c3 -5 2 -10 -4 -10 -5 0 -13 5 -16 10 -3 6 -2 10
4 10 5 0 13 -4 16 -10z m-865 -20 c-8 -5 -19 -10 -25 -10 -5 0 -3 5 5 10 8 5
20 10 25 10 6 0 3 -5 -5 -10z m915 -8 c-3 -3 -11 0 -18 7 -9 10 -8 11 6 5 10
-3 15 -9 12 -12z m-604 -80 c-13 -2 -27 0 -32 5 -6 6 3 7 23 4 28 -4 29 -6 9
-9z m246 12 c-3 -3 -12 -4 -19 -1 -8 3 -5 6 6 6 11 1 17 -2 13 -5z m40 -10
c-3 -3 -12 -4 -19 -1 -8 3 -5 6 6 6 11 1 17 -2 13 -5z m-334 -11 c-7 -2 -19
-2 -25 0 -7 3 -2 5 12 5 14 0 19 -2 13 -5z m452 -13 c13 -6 15 -9 5 -9 -8 0
-22 4 -30 9 -18 12 -2 12 25 0z m-580 -19 c-6 -5 -23 -12 -40 -15 -28 -6 -28
-5 5 8 43 18 46 18 35 7z m-80 -31 c-3 -5 -11 -10 -16 -10 -6 0 -7 5 -4 10 3
6 11 10 16 10 6 0 7 -4 4 -10z m-125 -72 c-12 -10 -27 -18 -34 -17 -6 0 -1 5
12 11 13 6 21 17 18 24 -3 9 1 11 11 7 14 -5 13 -9 -7 -25z m1070 -20 c0 -13
-5 -9 -31 19 l-24 26 27 -19 c15 -10 28 -22 28 -26z m-1120 -13 c0 -2 -10 -9
-22 -15 -22 -11 -22 -10 -4 4 21 17 26 19 26 11z m1170 -21 c0 -2 -9 0 -20 6
-11 6 -20 13 -20 16 0 2 9 0 20 -6 11 -6 20 -13 20 -16z m-385 -28 c220 -74
390 -244 463 -463 23 -69 26 -98 30 -255 l4 -178 -717 0 -717 0 4 178 c4 158
7 186 31 257 67 205 223 369 423 447 100 38 160 48 289 44 87 -3 127 -9 190
-30z m-851 5 c3 -4 -4 -17 -17 -27 -22 -19 -22 -19 -4 2 9 11 14 24 10 27 -3
4 -4 7 0 7 3 0 8 -4 11 -9z m1290 -27 c3 -8 2 -12 -4 -9 -6 3 -10 10 -10 16 0
14 7 11 14 -7z m-1354 -49 c-23 -24 -40 -25 -40 -2 0 8 3 8 9 -2 7 -10 13 -8
27 12 11 14 21 23 23 21 3 -2 -6 -15 -19 -29z m1415 -14 c9 -23 1 -20 -24 11
-23 28 -23 29 -3 17 12 -8 24 -20 27 -28z m-1642 4 c-3 -9 -8 -14 -10 -11 -3
3 -2 9 2 15 9 16 15 13 8 -4z m173 -52 c-9 -16 -25 -39 -36 -53 -23 -26 -19
-18 19 43 27 43 39 50 17 10z m1514 -17 c0 -6 -7 -1 -15 10 -8 10 -15 23 -15
28 0 6 7 1 15 -10 8 -10 15 -23 15 -28z m216 -23 c-3 -4 -6 -1 -6 6 0 7 -4 9
-10 6 -6 -4 -7 1 -3 11 6 15 7 15 15 -1 6 -9 7 -19 4 -22z m-166 -47 c0 -6 -7
-1 -15 10 -8 10 -15 23 -15 28 0 6 7 1 15 -10 8 -10 15 -23 15 -28z m20 -26
c0 -5 -2 -10 -4 -10 -3 0 -8 5 -11 10 -3 6 -1 10 4 10 6 0 11 -4 11 -10z
m-1682 -55 c-6 -14 -13 -23 -15 -21 -5 5 15 46 22 46 3 0 -1 -11 -7 -25z
m1760 -150 c-3 -3 -9 2 -12 12 -6 14 -5 15 5 6 7 -7 10 -15 7 -18z m-1831 -47
c-3 -8 -6 -5 -6 6 -1 11 2 17 5 13 3 -3 4 -12 1 -19z m1840 0 c-3 -8 -6 -5 -6
6 -1 11 2 17 5 13 3 -3 4 -12 1 -19z m10 -50 c-3 -8 -6 -5 -6 6 -1 11 2 17 5
13 3 -3 4 -12 1 -19z m-1870 -70 c-3 -7 -5 -2 -5 12 0 14 2 19 5 13 2 -7 2
-19 0 -25z m-10 -100 c-3 -7 -5 -2 -5 12 0 14 2 19 5 13 2 -7 2 -19 0 -25z
m2070 -20 c-3 -8 -6 -5 -6 6 -1 11 2 17 5 13 3 -3 4 -12 1 -19z m-1642 -328
c0 -8 5 -19 10 -23 6 -6 6 -10 -2 -14 -18 -7 -16 -43 2 -43 10 0 12 6 8 18 -6
15 -5 15 10 3 11 -9 17 -10 17 -2 0 6 -4 11 -10 11 -5 0 -10 7 -10 17 0 14 2
14 20 -2 12 -10 19 -24 16 -31 -3 -9 1 -11 12 -7 15 6 16 5 2 -13 -14 -18 -14
-18 4 -4 18 14 19 13 14 -12 -3 -15 -2 -25 2 -23 11 7 33 -22 26 -34 -4 -5 -1
-13 5 -17 8 -5 9 -3 4 6 -6 10 -4 11 11 6 10 -5 25 -9 32 -9 7 0 11 -5 9 -11
-2 -6 -11 -10 -19 -10 -12 1 -13 -3 -4 -22 9 -20 12 -21 15 -6 2 9 8 23 14 30
8 10 4 19 -13 35 -12 12 -19 16 -15 8 5 -9 3 -12 -6 -9 -8 3 -13 12 -11 21 1
8 -2 18 -8 22 -6 4 -7 -1 -3 -12 6 -16 5 -16 -11 -4 -9 8 -15 20 -12 26 2 7
-18 34 -45 61 -27 26 -49 51 -49 54 0 3 275 5 610 5 l610 0 0 -406 c0 -371 -2
-412 -20 -483 -40 -157 -124 -289 -245 -385 -222 -176 -523 -210 -768 -86
-190 97 -326 265 -377 469 -18 73 -20 113 -20 488 l0 409 98 -3 c78 -2 97 -6
97 -18z m-428 -312 c-2 -13 -4 -3 -4 22 0 25 2 35 4 23 2 -13 2 -33 0 -45z m0
-560 c-1 -57 -3 -11 -3 102 0 113 2 159 3 103 2 -57 2 -149 0 -205z m0 -180
c-3 -7 -5 -2 -5 12 0 14 2 19 5 13 2 -7 2 -19 0 -25z"/>
<path d="M2050 2974 c-213 -45 -399 -229 -455 -449 -8 -32 -15 -101 -15 -152
l0 -93 605 0 605 0 0 93 c0 177 -57 315 -180 438 -149 149 -351 208 -560 163z
m-285 -510 c37 -15 38 -82 1 -106 -35 -24 -86 8 -86 53 0 47 38 70 85 53z
m228 -6 c27 -22 31 -60 7 -86 -25 -26 -56 -28 -82 -5 -53 48 17 134 75 91z
m227 -8 c11 -11 20 -29 20 -40 0 -25 -34 -60 -58 -60 -30 0 -62 29 -62 57 0
57 61 82 100 43z m220 0 c11 -11 20 -29 20 -40 0 -11 -9 -29 -20 -40 -11 -11
-29 -20 -40 -20 -26 0 -60 34 -60 62 0 52 62 76 100 38z m222 3 c10 -9 18 -27
18 -40 0 -28 -33 -63 -60 -63 -28 0 -60 35 -60 64 0 47 66 72 102 39z"/>
<path d="M1809 1968 l31 -32 20 21 c14 16 16 24 7 31 -16 12 -47 11 -47 -2 0
-6 -5 -5 -12 2 -7 7 -16 12 -21 12 -5 0 5 -14 22 -32z m42 -1 c-8 -8 -14 -7
-23 2 -10 11 -10 13 0 7 6 -4 12 -2 12 4 0 6 5 8 11 4 8 -4 8 -9 0 -17z"/>
<path d="M1992 1963 c13 -47 14 -49 32 -34 8 7 21 9 27 5 9 -5 7 -10 -7 -16
-14 -6 -12 -7 9 -3 20 4 27 1 27 -10 0 -8 4 -15 10 -15 5 0 7 7 4 15 -10 24 1
18 54 -33 40 -37 49 -51 41 -64 -8 -14 -4 -20 20 -32 16 -9 31 -21 34 -28 4
-10 6 -10 6 0 1 7 -13 21 -30 31 -17 11 -26 22 -20 25 6 4 27 -9 48 -28 l38
-35 -27 -10 c-15 -6 -36 -8 -45 -5 -16 5 -17 5 -1 -5 11 -8 25 -8 43 -1 20 8
32 6 50 -6 22 -14 38 -43 17 -30 -5 3 -9 -1 -9 -9 0 -8 6 -16 14 -19 7 -3 12
-2 10 2 -2 7 6 12 18 12 3 0 1 -9 -5 -20 -9 -16 -6 -22 20 -35 18 -9 28 -21
24 -27 -4 -7 -3 -8 5 -4 9 6 9 11 0 22 -25 31 7 12 38 -22 36 -40 37 -52 3
-34 -13 7 -20 7 -16 2 3 -6 0 -13 -6 -16 -7 -3 -3 -3 9 -1 27 7 39 -11 16 -24
-10 -6 -13 -11 -7 -11 5 0 16 6 22 12 10 10 15 10 21 -1 7 -11 9 -11 13 0 3
10 11 7 28 -9 13 -12 20 -25 16 -29 -4 -4 -10 -3 -14 2 -4 6 -14 11 -22 13 -8
1 -4 -7 10 -18 14 -11 19 -20 13 -20 -18 0 -16 -17 2 -17 8 0 12 3 10 7 -2 3
0 12 5 19 8 14 30 7 30 -10 0 -6 -5 -7 -11 -3 -6 3 -4 -7 5 -24 8 -16 32 -39
52 -52 25 -14 33 -16 25 -6 -8 9 -9 16 -3 16 17 0 62 -66 51 -77 -6 -6 -4 -10
6 -10 37 0 4 42 -151 197 -92 91 -164 157 -160 146 5 -14 2 -17 -10 -12 -8 3
-18 6 -21 6 -3 0 0 7 8 16 11 13 -9 37 -149 177 -89 89 -164 158 -168 154 -4
-4 1 -13 11 -21 18 -13 16 -14 -15 -12 -30 1 -35 5 -38 29 -2 15 -7 27 -12 27
-5 0 -4 -17 2 -37z m98 -33 c0 -5 -2 -10 -4 -10 -3 0 -8 5 -11 10 -3 6 -1 10
4 10 6 0 11 -4 11 -10z m498 -504 c-2 -5 7 -12 20 -17 12 -5 22 -13 22 -19 0
-16 -18 -12 -40 10 -21 21 -27 44 -9 38 6 -2 9 -7 7 -12z"/>
<path d="M2017 1985 c-4 -8 -2 -17 2 -20 5 -2 11 4 14 15 6 23 -8 27 -16 5z"/>
<path d="M2140 1988 c0 -11 12 -10 30 2 12 7 10 9 -8 7 -12 0 -22 -5 -22 -9z"/>
<path d="M2399 1970 c34 -25 41 -35 36 -53 -4 -15 -3 -18 3 -8 8 10 14 9 35
-9 15 -13 24 -27 21 -32 -3 -4 2 -8 11 -8 11 0 15 -5 11 -16 -3 -9 -2 -12 4
-9 6 4 25 -8 43 -26 20 -20 25 -30 14 -26 -17 6 -17 6 0 -17 10 -13 19 -20 21
-16 2 5 10 6 18 3 7 -3 11 -9 8 -14 -3 -5 1 -9 9 -9 15 0 47 -31 47 -45 0 -4
-10 0 -22 11 -18 14 -17 12 3 -11 15 -17 25 -35 22 -41 -2 -6 3 -17 12 -24 10
-8 15 -9 15 -1 0 6 -6 11 -12 11 -9 0 -8 3 2 10 13 8 12 11 -5 25 -20 17 -20
17 0 10 23 -7 3 15 -185 201 -68 68 -131 124 -139 124 -8 0 5 -14 28 -30z"/>
<path d="M2490 1996 c0 -5 193 -196 198 -196 2 0 1 4 -3 9 -3 5 -1 12 4 16 6
3 8 -5 5 -20 -2 -14 -1 -25 4 -25 4 0 9 50 10 110 l2 110 -28 -1 c-17 -1 -20
-3 -9 -6 9 -2 18 -10 18 -16 9 -80 -3 -103 -45 -87 -14 5 -26 15 -27 22 0 7
-3 5 -7 -4 -6 -14 -12 -11 -41 19 l-34 36 29 -7 c25 -5 26 -5 9 5 -11 6 -26
18 -32 27 -15 18 -30 9 -17 -11 5 -7 2 -5 -8 5 -15 17 -28 23 -28 14z m156
-120 c10 -8 17 -17 14 -19 -3 -3 -16 3 -30 13 -29 22 -14 27 16 6z m44 -30
c-5 -15 -15 -24 -20 -21 -10 6 -7 17 13 43 15 19 19 8 7 -22z"/>
<path d="M2550 1989 c0 -5 9 -9 20 -9 11 0 20 2 20 4 0 2 -9 6 -20 9 -11 3
-20 1 -20 -4z"/>
<path d="M2610 1996 c0 -2 9 -6 20 -9 11 -3 20 -1 20 4 0 5 -9 9 -20 9 -11 0
-20 -2 -20 -4z"/>
<path d="M1898 1983 c7 -3 16 -2 19 1 4 3 -2 6 -13 5 -11 0 -14 -3 -6 -6z"/>
<path d="M2160 1974 c0 -7 40 -44 47 -44 2 0 -4 11 -14 25 -17 23 -33 32 -33
19z"/>
<path d="M2600 1970 c0 -5 5 -10 10 -10 6 0 10 5 10 10 0 6 -4 10 -10 10 -5 0
-10 -4 -10 -10z"/>
<path d="M1865 1945 c-18 -15 -16 -18 55 -89 40 -41 78 -72 84 -70 7 2 18 14
25 27 13 21 13 22 -6 5 -11 -10 -23 -18 -28 -18 -4 0 -1 8 6 18 7 9 9 14 5 10
-5 -4 -16 -2 -25 5 -14 11 -14 10 -2 -5 15 -20 -1 -25 -17 -5 -6 7 -7 18 -2
26 8 14 -9 41 -26 41 -5 0 -3 -5 4 -12 21 -21 13 -32 -9 -13 l-20 19 22 16 21
17 -23 -2 c-13 -1 -23 -8 -21 -14 4 -18 -12 -12 -26 10 -10 16 -10 24 -1 35
15 18 9 17 -16 -1z"/>
<path d="M1900 1956 c0 -2 7 -9 15 -16 13 -11 14 -10 9 4 -5 14 -24 23 -24 12z"/>
<path d="M2395 1940 c-6 -9 11 -50 21 -50 2 0 0 9 -6 20 -6 11 -8 25 -5 30 3
6 4 10 1 10 -3 0 -8 -4 -11 -10z"/>
<path d="M2220 1923 c0 -6 110 -122 245 -257 239 -239 245 -244 245 -211 0 19
-5 35 -11 35 -6 0 -8 -9 -3 -22 7 -23 6 -23 -15 -4 -28 25 -27 36 4 36 23 0
25 3 25 49 0 30 -5 51 -12 54 -10 3 -12 -8 -10 -43 3 -42 1 -48 -19 -53 -18
-5 -32 2 -56 25 -35 34 -47 64 -14 33 19 -16 20 -16 18 4 -1 18 -7 21 -32 19
-20 -2 -29 1 -27 10 1 6 -4 12 -11 12 -7 0 -26 14 -43 31 -28 30 -28 31 -5 24
17 -5 21 -4 16 5 -4 6 -16 9 -27 7 -22 -6 -71 41 -63 61 3 7 0 10 -5 7 -12 -7
-87 61 -78 70 3 3 13 -1 21 -10 14 -14 16 -13 14 4 -1 15 -7 18 -28 16 -19 -3
-35 5 -60 31 -35 36 -35 39 4 25 16 -7 24 -6 24 2 0 7 -16 13 -35 14 -19 1
-40 9 -48 20 -7 10 -14 13 -14 6z"/>
<path d="M1971 1901 c-8 -5 -9 -11 -3 -15 5 -3 12 1 16 9 6 17 6 18 -13 6z"/>
<path d="M2045 1890 c3 -5 8 -10 11 -10 2 0 4 5 4 10 0 6 -5 10 -11 10 -5 0
-7 -4 -4 -10z"/>
<path d="M1985 1870 c-3 -6 1 -7 9 -4 18 7 21 14 7 14 -6 0 -13 -4 -16 -10z"/>
<path d="M2070 1870 c0 -5 5 -10 11 -10 5 0 7 5 4 10 -3 6 -8 10 -11 10 -2 0
-4 -4 -4 -10z"/>
<path d="M2466 1865 c4 -8 8 -15 10 -15 2 0 4 7 4 15 0 8 -4 15 -10 15 -5 0
-7 -7 -4 -15z"/>
<path d="M2106 1862 c-2 -4 4 -8 14 -8 10 0 16 4 14 8 -3 4 -9 8 -14 8 -5 0
-11 -4 -14 -8z"/>
<path d="M1662 1830 c0 -16 3 -30 7 -30 4 0 8 14 9 30 0 17 -3 30 -7 30 -4 0
-8 -13 -9 -30z"/>
<path d="M2160 1810 c0 -5 -7 -10 -15 -10 -8 0 -15 -5 -15 -10 0 -7 6 -7 19 0
24 12 36 30 22 30 -6 0 -11 -4 -11 -10z"/>
<path d="M1878 1801 c16 -20 15 -36 -2 -22 -11 9 -13 6 -13 -15 0 -16 2 -21 7
-14 4 7 13 9 20 5 9 -5 11 -4 6 3 -17 27 15 9 35 -20 18 -24 19 -30 7 -25 -17
6 -46 -19 -35 -30 4 -3 9 2 13 11 5 13 9 14 20 5 10 -8 14 -8 14 0 0 6 5 11
11 11 6 0 9 -7 5 -15 -5 -14 6 -20 28 -16 5 1 6 -9 4 -23 -3 -14 -2 -23 2 -21
11 7 34 -24 26 -32 -4 -4 -10 -2 -14 4 -5 7 -12 6 -22 -5 -13 -14 -12 -15 3
-9 9 3 19 2 22 -3 4 -6 11 -10 16 -10 6 0 7 5 3 12 -5 8 -2 9 12 4 10 -4 24
-9 29 -10 18 -3 35 -17 35 -28 0 -7 -6 -6 -15 2 -8 7 -15 8 -15 2 0 -5 6 -15
14 -22 8 -6 12 -19 8 -28 -5 -15 -4 -15 12 1 20 19 41 23 30 5 -4 -6 -3 -8 3
-5 6 4 18 -4 27 -17 15 -23 15 -25 -4 -23 -12 1 -18 7 -16 14 7 18 3 16 -25
-8 -24 -21 -24 -21 -1 -15 15 5 22 3 22 -6 0 -10 2 -10 9 1 6 10 10 10 16 1 6
-9 9 -9 16 1 4 7 11 10 15 6 4 -4 2 -13 -4 -19 -7 -7 -12 -17 -12 -22 0 -6 5
-4 10 4 6 9 13 11 18 5 4 -6 19 -16 35 -24 15 -8 27 -18 27 -23 0 -5 -10 -3
-22 3 l-23 12 20 -23 c15 -18 16 -22 4 -18 -9 4 -22 2 -30 -4 -11 -8 -10 -9 4
-4 12 4 17 2 15 -6 -3 -7 -14 -14 -26 -16 -25 -4 -30 -22 -7 -22 9 0 26 11 38
23 12 13 29 22 37 20 13 -4 13 -3 0 6 -8 5 -11 13 -7 17 3 4 14 1 23 -7 14
-12 14 -14 -3 -27 -16 -13 -16 -14 0 -9 18 7 24 -7 8 -18 -16 -9 -9 -43 8 -37
10 4 11 7 3 10 -7 2 -9 8 -6 13 3 6 11 6 20 -2 7 -6 11 -15 8 -20 -3 -5 -1 -9
5 -9 21 0 20 19 -1 34 -12 9 -19 19 -15 22 9 9 58 -36 52 -46 -3 -4 2 -13 10
-20 8 -7 15 -9 15 -5 0 5 9 0 20 -10 12 -10 18 -25 16 -32 -4 -9 1 -13 12 -11
10 2 16 -3 14 -10 -1 -8 2 -11 8 -7 5 3 10 2 10 -4 0 -5 -8 -15 -17 -20 -10
-6 -13 -11 -7 -11 5 0 15 5 20 10 7 7 22 0 47 -21 37 -31 37 -32 21 -58 -17
-25 -17 -26 2 -9 20 18 52 10 40 -10 -3 -6 -2 -13 3 -16 7 -5 8 -20 2 -44 -1
-1 -7 3 -15 10 -10 9 -11 15 -2 20 8 5 7 8 -3 8 -8 0 -11 6 -7 16 3 9 2 12 -5
9 -6 -4 -8 -14 -5 -22 5 -11 2 -14 -11 -9 -10 4 -6 -4 10 -18 16 -14 26 -30
22 -36 -3 -6 -11 -8 -16 -5 -5 4 -9 2 -9 -4 0 -6 -8 -7 -17 -4 -16 6 -16 5 -4
-10 7 -9 16 -17 20 -17 4 0 24 23 46 51 l38 50 -293 292 c-161 161 -289 286
-285 278 5 -9 3 -12 -6 -9 -8 3 -13 11 -12 19 2 8 -39 55 -89 104 -51 50 -87
83 -80 76z m157 -162 c11 -17 -1 -21 -15 -4 -8 9 -8 15 -2 15 6 0 14 -5 17
-11z m95 -99 c0 -5 -4 -10 -10 -10 -5 0 -10 5 -10 10 0 6 5 10 10 10 6 0 10
-4 10 -10z m496 -491 c3 -6 1 -15 -5 -20 -6 -5 -9 -6 -6 -3 3 4 0 13 -6 21 -8
9 -8 13 -1 13 6 0 14 -5 18 -11z"/>
<path d="M1711 1784 c0 -11 3 -14 6 -6 3 7 2 16 -1 19 -3 4 -6 -2 -5 -13z"/>
<path d="M1660 1778 c0 -13 739 -758 751 -758 4 0 9 7 12 14 4 10 1 13 -9 9
-7 -3 -14 0 -14 6 0 6 -7 11 -16 11 -8 0 -12 5 -9 10 10 16 -14 40 -32 33 -12
-5 -15 -2 -10 10 5 12 -1 19 -19 23 -21 5 -23 9 -12 23 12 14 11 15 -4 2 -12
-9 -18 -10 -18 -2 0 6 10 16 23 21 13 5 16 9 7 9 -9 1 -20 -3 -26 -9 -6 -6
-15 -6 -24 0 -10 7 -11 10 -2 10 23 0 12 16 -19 27 -17 7 -28 17 -24 22 4 7
-1 9 -12 5 -16 -5 -16 -4 1 10 11 9 15 16 10 16 -6 0 -15 -5 -20 -10 -7 -7
-15 -3 -23 14 -8 13 -22 27 -32 29 -11 3 -19 10 -19 16 0 8 6 9 19 1 25 -13
31 -13 31 0 0 6 -10 10 -21 10 -18 0 -19 2 -9 15 7 9 8 15 2 15 -5 0 -12 -7
-16 -15 -4 -13 -9 -13 -25 -3 -11 6 -19 17 -18 22 1 6 -4 10 -10 8 -7 -1 -13
2 -13 8 0 5 8 10 18 11 14 0 14 2 -3 8 -11 5 -26 6 -34 3 -9 -3 -12 -1 -7 6 4
7 17 13 29 13 17 1 18 2 5 6 -10 2 -18 9 -18 14 0 5 -5 9 -11 9 -6 0 -9 -7 -5
-15 3 -8 3 -15 -1 -15 -11 0 -92 84 -88 91 3 4 -9 12 -25 19 -40 17 -45 27
-24 51 10 11 12 19 6 19 -7 0 -12 -4 -12 -9 0 -5 -8 -8 -17 -6 -10 2 -21 4
-25 4 -5 1 -7 6 -5 13 1 7 -4 12 -12 13 -8 0 -16 6 -19 13 -2 7 2 10 12 6 9
-3 16 -1 16 4 0 6 -12 9 -27 6 -24 -5 -25 -3 -12 12 8 11 9 15 2 11 -7 -5 -21
1 -33 13 -11 11 -25 20 -30 20 -6 0 -5 8 2 20 8 13 20 19 31 16 9 -2 17 0 17
5 0 6 -22 8 -50 5 -47 -5 -52 -3 -60 19 -10 27 -20 33 -20 13z m73 -55 c-3 -7
-6 -13 -8 -13 -2 0 -5 6 -8 13 -3 8 1 14 8 14 7 0 11 -6 8 -14z m637 -644 c0
-6 -4 -7 -10 -4 -5 3 -10 11 -10 16 0 6 5 7 10 4 6 -3 10 -11 10 -16z"/>
<path d="M2050 1775 c-10 -12 -16 -13 -26 -4 -8 6 -14 8 -14 3 0 -5 51 -60
114 -121 l113 -113 19 23 c10 12 12 16 4 10 -21 -19 -34 -16 -19 5 7 9 9 14 5
10 -5 -4 -16 -2 -24 5 -13 9 -14 9 -8 0 13 -23 -9 -13 -27 12 -18 26 -11 35
11 13 7 -7 12 -9 12 -4 0 16 -32 39 -39 28 -4 -7 -12 -8 -21 -2 -11 7 -11 10
-2 10 10 0 10 5 1 21 -13 26 4 42 36 33 18 -4 18 -4 3 6 -13 8 -24 8 -37 0
-26 -13 -34 -13 -25 3 5 8 2 7 -9 -2 -22 -18 -33 -8 -13 11 17 18 8 34 -18 33
-11 0 -21 6 -24 14 -3 9 0 11 8 6 9 -5 11 -4 6 3 -9 15 -11 15 -26 -3z m14
-32 c6 -14 9 -15 15 -4 5 7 11 9 14 5 3 -5 0 -14 -7 -20 -9 -8 -16 -5 -29 13
-10 12 -14 23 -9 23 6 0 13 -8 16 -17z m76 -81 c0 -13 -3 -12 -15 4 -19 25
-19 40 0 24 8 -7 15 -20 15 -28z"/>
<path d="M2120 1756 c0 -2 8 -10 18 -17 15 -13 16 -12 3 4 -13 16 -21 21 -21
13z"/>
<path d="M2175 1750 c-8 -13 5 -13 25 0 13 8 13 10 -2 10 -9 0 -20 -4 -23 -10z"/>
<path d="M2556 1743 c-6 -14 -5 -15 5 -6 7 7 10 15 7 18 -3 3 -9 -2 -12 -12z"/>
<path d="M2447 1743 c7 -2 11 -10 9 -16 -1 -7 -1 -9 1 -4 3 4 8 5 12 3 4 -3 8
1 8 7 0 7 -10 13 -21 14 -12 1 -16 -1 -9 -4z"/>
<path d="M2280 1695 c7 -9 15 -13 17 -11 7 7 -7 26 -19 26 -6 0 -6 -6 2 -15z"/>
<path d="M1790 1690 c-8 -5 -10 -10 -5 -10 6 0 17 5 25 10 8 5 11 10 5 10 -5
0 -17 -5 -25 -10z"/>
<path d="M2240 1690 c0 -5 5 -10 11 -10 5 0 7 5 4 10 -3 6 -8 10 -11 10 -2 0
-4 -4 -4 -10z"/>
<path d="M1866 1675 c10 -8 23 -15 28 -15 6 0 1 7 -10 15 -10 8 -23 15 -28 15
-6 0 -1 -7 10 -15z"/>
<path d="M2270 1670 c0 -5 5 -10 11 -10 5 0 7 5 4 10 -3 6 -8 10 -11 10 -2 0
-4 -4 -4 -10z"/>
<path d="M2635 1669 c-4 -6 -5 -12 -2 -15 2 -3 7 2 10 11 7 17 1 20 -8 4z"/>
<path d="M1660 1664 c0 -5 20 -30 45 -54 24 -24 41 -48 38 -53 -3 -6 -1 -7 5
-3 6 3 13 2 17 -4 3 -5 -2 -10 -12 -11 -11 0 -13 -3 -5 -6 6 -2 10 -8 7 -12
-2 -5 8 -8 23 -7 16 0 26 -4 24 -12 -1 -7 10 -17 25 -23 16 -6 23 -13 17 -17
-13 -8 -10 -40 6 -56 8 -8 9 -6 4 8 -6 15 -4 17 7 11 12 -7 12 -6 1 7 -7 8
-10 22 -7 29 3 9 -35 53 -95 113 -55 55 -100 95 -100 90z m125 -134 c3 -5 1
-10 -4 -10 -6 0 -11 5 -11 10 0 6 2 10 4 10 3 0 8 -4 11 -10z"/>
<path d="M2200 1661 c0 -5 5 -13 10 -16 6 -3 10 -2 10 4 0 5 -4 13 -10 16 -5
3 -10 2 -10 -4z"/>
<path d="M2520 1646 c0 -2 6 -9 14 -15 10 -9 15 -8 19 2 3 8 -3 13 -14 14 -10
1 -19 0 -19 -1z"/>
<path d="M2310 1625 c6 -8 8 -20 4 -27 -6 -10 -3 -9 9 1 13 10 15 17 6 27 -6
8 -16 14 -21 14 -6 0 -5 -6 2 -15z"/>
<path d="M2226 1617 c3 -10 9 -15 12 -12 3 3 0 11 -7 18 -10 9 -11 8 -5 -6z"/>
<path d="M1661 1603 c-1 -13 4 -23 9 -23 6 0 10 5 10 12 0 6 12 1 28 -13 l27
-24 -24 27 c-13 15 -27 25 -32 23 -4 -3 -10 1 -12 7 -3 7 -6 3 -6 -9z"/>
<path d="M2358 1593 c7 -3 16 -2 19 1 4 3 -2 6 -13 5 -11 0 -14 -3 -6 -6z"/>
<path d="M1968 1559 c5 -34 5 -34 23 -12 12 14 12 16 0 8 -11 -6 -13 -4 -8 8
3 8 0 18 -7 20 -8 3 -11 -4 -8 -24z"/>
<path d="M1915 1565 c-19 -14 -18 -15 7 -6 17 7 28 7 32 0 2 -5 3 -4 2 3 -4
18 -20 20 -41 3z"/>
<path d="M2286 1564 c-5 -14 -4 -15 8 -5 9 7 17 8 20 2 6 -9 66 -33 66 -26 0
3 -17 12 -37 22 -21 9 -41 18 -44 20 -4 2 -9 -4 -13 -13z"/>
<path d="M2405 1570 c-4 -6 -16 -8 -28 -5 -20 5 -20 5 -3 -6 14 -9 21 -8 34 5
9 9 13 16 10 16 -4 0 -10 -5 -13 -10z"/>
<path d="M1667 1563 c-11 -10 -8 -20 7 -26 8 -3 13 0 12 8 -3 19 -11 27 -19
18z"/>
<path d="M1710 1539 c0 -5 5 -7 10 -4 6 3 10 8 10 11 0 2 -4 4 -10 4 -5 0 -10
-5 -10 -11z"/>
<path d="M2295 1540 c-3 -4 -2 -16 1 -27 4 -14 1 -13 -15 6 -12 13 -24 21 -27
18 -4 -3 9 -22 28 -42 31 -33 36 -35 50 -21 9 8 17 13 19 12 2 -2 9 2 16 9 9
10 7 13 -12 11 -13 0 -21 -4 -19 -7 2 -4 -3 -9 -11 -13 -8 -3 -17 0 -21 6 -5
7 -2 8 6 3 9 -5 11 -4 6 4 -4 6 -3 18 3 25 9 10 8 15 -3 19 -9 4 -18 2 -21 -3z"/>
<path d="M2070 1530 c0 -5 5 -10 11 -10 5 0 7 5 4 10 -3 6 -8 10 -11 10 -2 0
-4 -4 -4 -10z"/>
<path d="M1661 1504 c0 -11 3 -14 6 -6 3 7 2 16 -1 19 -3 4 -6 -2 -5 -13z"/>
<path d="M1980 1509 c0 -5 -6 -7 -12 -3 -9 5 -9 2 1 -9 7 -9 19 -17 25 -16 7
0 7 2 -1 5 -7 3 -9 12 -6 20 3 8 2 14 -1 14 -3 0 -6 -5 -6 -11z"/>
<path d="M2050 1479 c0 -5 5 -7 10 -4 6 3 10 8 10 11 0 2 -4 4 -10 4 -5 0 -10
-5 -10 -11z"/>
<path d="M1775 1470 c-3 -6 1 -7 9 -4 18 7 21 14 7 14 -6 0 -13 -4 -16 -10z"/>
<path d="M2085 1469 c-4 -6 -5 -12 -2 -15 2 -3 7 2 10 11 7 17 1 20 -8 4z"/>
<path d="M2376 1464 c-9 -24 -7 -27 9 -10 17 17 19 26 6 26 -5 0 -12 -7 -15
-16z"/>
<path d="M2456 1472 c-2 -4 7 -12 20 -19 13 -6 24 -7 24 -2 0 12 -38 31 -44
21z"/>
<path d="M2335 1459 c-9 -14 140 -163 154 -154 18 11 12 22 -10 21 -12 -1 -24
6 -27 14 -4 13 -3 13 10 2 13 -10 18 -10 24 -1 4 7 3 9 -4 5 -6 -3 -13 -2 -17
3 -3 6 -12 8 -21 4 -10 -4 -7 8 11 43 14 27 20 43 14 37 -15 -15 -33 -17 -24
-3 3 6 1 10 -4 10 -13 0 -14 -17 -2 -24 10 -7 3 -46 -8 -46 -14 0 -51 47 -44
55 5 4 2 5 -5 1 -18 -11 -44 18 -29 33 8 8 8 11 0 11 -7 0 -15 -5 -18 -11z"/>
<path d="M1870 1453 c0 -6 13 -24 29 -39 16 -15 27 -33 24 -40 -2 -7 5 -17 16
-24 29 -15 26 -31 -4 -26 -14 3 -25 0 -25 -5 0 -5 5 -9 11 -9 5 0 7 -4 4 -10
-3 -5 0 -7 8 -4 8 3 18 1 22 -5 3 -6 11 -11 18 -11 6 0 3 6 -6 13 -14 11 -14
14 -2 31 8 11 15 18 16 15 7 -41 19 -67 19 -40 0 7 4 10 10 6 5 -3 6 -13 3
-21 -4 -10 -1 -15 8 -13 19 3 50 -11 44 -21 -3 -4 2 -10 10 -14 8 -3 12 -12 9
-21 -3 -8 -11 -12 -16 -9 -6 4 -3 -5 6 -18 9 -14 13 -28 9 -33 -5 -4 -3 -5 4
-2 6 4 13 4 16 0 2 -5 2 -1 -1 7 -2 8 -6 26 -8 40 -5 24 -5 24 16 5 11 -10 18
-25 16 -32 -4 -9 1 -13 12 -11 10 2 16 -3 14 -11 -1 -7 2 -19 8 -25 5 -7 6
-17 2 -21 -4 -5 -1 -5 6 0 10 5 11 10 3 18 -20 20 -12 31 9 12 11 -10 17 -23
13 -29 -3 -6 -3 -8 1 -4 4 3 16 -1 26 -10 16 -13 17 -19 7 -31 -10 -12 -9 -13
2 -6 11 6 13 4 8 -7 -4 -12 0 -15 18 -13 24 2 57 -24 61 -48 1 -7 6 -21 10
-32 7 -18 6 -19 -12 -5 -17 14 -18 13 -7 -1 7 -9 9 -20 5 -25 -4 -4 0 -3 9 4
9 6 19 8 24 4 4 -4 3 3 -4 15 -17 32 -13 38 9 18 12 -10 18 -25 15 -32 -2 -8
-1 -11 4 -8 11 6 26 -33 22 -55 -2 -8 -8 -18 -14 -22 -7 -4 -8 -8 -3 -8 5 0
17 7 27 16 10 9 20 11 23 6 3 -6 -13 -19 -37 -30 -31 -15 -47 -17 -62 -10 -19
10 -19 9 -4 -7 15 -16 19 -15 68 5 55 24 59 31 35 50 -8 8 -20 23 -26 34 -7
14 2 9 26 -13 19 -19 38 -33 40 -30 3 3 -130 139 -295 304 -164 165 -299 294
-299 288z m88 -93 c12 -19 11 -20 -8 -8 -11 7 -20 16 -20 20 0 15 15 8 28 -12z
m312 -311 c0 -14 -17 -10 -23 5 -4 10 -1 13 9 9 7 -3 14 -9 14 -14z"/>
<path d="M1710 1430 c0 -6 -11 -8 -25 -4 -14 3 -25 2 -25 -3 0 -4 48 -56 107
-113 59 -58 92 -88 74 -66 -26 30 -30 41 -19 47 9 6 6 8 -11 7 -13 -2 -26 3
-28 10 -3 8 2 10 14 6 15 -5 15 -4 3 5 -8 5 -11 14 -6 18 4 4 13 0 21 -10 11
-16 13 -16 19 -2 3 9 2 14 -3 11 -5 -3 -14 1 -21 9 -15 18 -34 20 -24 3 5 -8
2 -9 -11 -4 -15 5 -16 4 -5 -9 18 -21 -3 -19 -23 3 -15 17 -15 20 0 43 16 23
16 23 0 10 -22 -17 -23 2 -1 23 8 9 11 16 5 16 -5 0 -14 -8 -20 -17 -5 -10
-13 -15 -17 -11 -4 4 -1 14 6 23 8 10 9 15 1 15 -6 0 -11 -5 -11 -10z m-8 -27
c30 -36 30 -47 0 -19 -18 17 -32 31 -32 33 0 9 19 1 32 -14z"/>
<path d="M2113 1424 c0 -16 23 -19 31 -5 3 5 -2 11 -12 13 -11 3 -19 0 -19 -8z"/>
<path d="M2415 1400 c3 -5 8 -10 11 -10 2 0 4 5 4 10 0 6 -5 10 -11 10 -5 0
-7 -4 -4 -10z"/>
<path d="M2559 1387 c6 -8 7 -18 3 -22 -4 -5 -1 -5 6 -1 10 6 10 11 1 22 -6 8
-14 14 -16 14 -3 0 0 -6 6 -13z"/>
<path d="M1870 1370 c0 -5 5 -10 11 -10 5 0 7 5 4 10 -3 6 -8 10 -11 10 -2 0
-4 -4 -4 -10z"/>
<path d="M2506 1357 c2 -11 6 -22 10 -26 4 -3 5 1 2 9 -3 8 2 20 9 25 12 9 11
11 -5 11 -14 0 -19 -6 -16 -19z"/>
<path d="M2590 1356 c0 -2 7 -7 16 -10 8 -3 12 -2 9 4 -6 10 -25 14 -25 6z"/>
<path d="M2540 1336 c0 -2 7 -7 16 -10 8 -3 12 -2 9 4 -6 10 -25 14 -25 6z"/>
<path d="M1660 1312 c0 -6 5 -14 10 -17 6 -4 8 -11 5 -16 -3 -5 2 -6 12 -3 17
5 17 5 0 -9 -18 -15 -21 -77 -4 -77 4 0 5 -5 2 -10 -3 -6 -3 -20 0 -31 6 -17
9 -19 16 -8 7 12 9 12 9 0 0 -8 2 -12 5 -9 10 9 -7 38 -18 31 -7 -4 -8 0 -4
11 4 10 7 23 7 29 1 7 7 1 15 -13 10 -18 14 -20 15 -8 0 9 -4 20 -10 23 -5 3
-10 13 -10 21 0 8 5 14 10 14 6 0 10 -7 10 -16 0 -8 4 -13 8 -10 11 7 56 -43
47 -52 -6 -6 -20 10 -28 33 -3 6 -8 7 -12 3 -4 -4 4 -18 18 -32 14 -14 21 -28
16 -31 -5 -4 -9 -12 -9 -18 0 -8 3 -7 9 2 5 7 14 10 21 6 9 -6 9 -3 1 14 -14
25 0 28 21 4 8 -10 14 -34 13 -56 -1 -21 2 -40 6 -43 5 -3 6 2 3 10 -3 9 -1
16 5 16 8 0 9 5 1 19 -16 32 -11 38 10 11 10 -14 22 -22 25 -18 4 3 -46 59
-109 124 -64 64 -116 112 -116 106z m50 -62 c0 -5 -4 -10 -10 -10 -5 0 -7 -7
-4 -15 4 -8 1 -15 -5 -15 -12 0 -14 11 -5 34 7 18 24 22 24 6z"/>
<path d="M2533 1313 c4 -6 1 -13 -5 -16 -7 -2 -9 -8 -5 -13 4 -5 12 -2 17 5 5
10 8 6 7 -12 -2 -32 -5 -33 -23 -9 -7 9 -14 13 -14 7 0 -5 23 -32 51 -60 29
-27 47 -40 40 -28 -16 30 -14 35 8 23 13 -7 18 -18 15 -33 -2 -16 4 -31 21
-47 l24 -23 11 28 c6 16 9 34 6 41 -3 8 -1 16 4 19 6 4 10 25 9 48 l-1 42 -10
-45 c-5 -25 -10 -53 -10 -63 1 -10 -4 -15 -10 -11 -7 4 -8 -2 -3 -17 7 -22 7
-23 -11 -9 -10 8 -21 16 -23 17 -3 2 4 10 15 18 14 11 14 13 3 9 -13 -4 -15 0
-12 19 3 14 0 28 -6 31 -7 5 -9 1 -4 -11 6 -17 5 -17 -13 -1 -18 17 -18 18 1
33 19 16 19 16 -2 5 -18 -8 -23 -8 -23 2 0 8 -5 6 -11 -4 -5 -10 -14 -18 -18
-18 -11 0 -9 33 2 41 4 3 -2 14 -14 25 -13 10 -19 14 -16 7z m53 -90 c-10 -10
-19 5 -10 18 6 11 8 11 12 0 2 -7 1 -15 -2 -18z"/>
<path d="M2656 1305 c-9 -26 -7 -32 5 -12 6 10 9 21 6 23 -2 3 -7 -2 -11 -11z"/>
<path d="M2490 1290 c0 -5 5 -10 10 -10 6 0 10 5 10 10 0 6 -4 10 -10 10 -5 0
-10 -4 -10 -10z"/>
<path d="M1859 1248 c18 -20 31 -40 28 -45 -3 -5 82 -97 189 -204 106 -106
194 -191 194 -187 0 4 -16 22 -36 41 -32 30 -35 37 -25 53 11 16 12 16 7 2 -3
-10 -1 -18 4 -18 14 0 21 18 9 25 -5 4 -8 14 -5 24 5 12 2 11 -9 -3 -14 -19
-15 -19 -37 0 -18 15 -20 16 -9 2 7 -10 9 -18 3 -18 -15 0 -33 26 -24 35 4 5
1 5 -5 1 -18 -10 -16 9 2 27 12 13 11 17 -8 33 -15 13 -18 14 -9 3 12 -16 7
-49 -7 -49 -4 0 -18 11 -31 25 -27 29 -17 34 14 8 14 -12 13 -9 -4 10 -13 16
-26 23 -28 18 -2 -6 -8 -9 -12 -6 -5 3 -7 12 -3 20 4 11 1 13 -11 9 -9 -3 -16
-1 -16 5 0 6 5 11 11 11 8 0 9 4 0 13 -6 8 -7 17 -3 22 4 4 -3 2 -16 -4 -29
-15 -47 -5 -30 17 12 16 11 16 -6 2 -18 -14 -19 -13 -13 2 4 12 2 15 -8 12
-13 -5 -39 28 -29 38 2 3 -4 11 -13 19 -16 13 -17 12 -4 -3 8 -11 9 -18 3 -18
-13 0 -26 20 -27 41 0 9 -16 29 -35 44 l-35 29 34 -36z m171 -168 c0 -5 -4
-10 -10 -10 -5 0 -10 5 -10 10 0 6 5 10 10 10 6 0 10 -4 10 -10z m165 -170 c3
-5 1 -10 -4 -10 -6 0 -11 5 -11 10 0 6 2 10 4 10 3 0 8 -4 11 -10z"/>
<path d="M1880 1262 c0 -15 28 -23 36 -9 4 7 4 9 -1 5 -4 -4 -14 -3 -22 3 -8
7 -13 8 -13 1z"/>
<path d="M2647 1240 c3 -11 7 -20 9 -20 2 0 4 9 4 20 0 11 -4 20 -9 20 -5 0
-7 -9 -4 -20z"/>
<path d="M2671 1244 c0 -11 3 -14 6 -6 3 7 2 16 -1 19 -3 4 -6 -2 -5 -13z"/>
<path d="M2014 1225 c-18 -15 -18 -15 0 -8 13 4 17 3 12 -5 -4 -7 -2 -12 4
-12 7 0 10 6 7 14 -3 8 -1 17 6 20 7 2 7 5 1 5 -5 1 -19 -6 -30 -14z"/>
<path d="M2385 1231 c-3 -5 -1 -12 5 -16 5 -3 10 1 10 9 0 18 -6 21 -15 7z"/>
<path d="M2415 1220 c3 -5 8 -10 11 -10 2 0 4 5 4 10 0 6 -5 10 -11 10 -5 0
-7 -4 -4 -10z"/>
<path d="M2415 1190 c3 -5 8 -10 11 -10 2 0 4 5 4 10 0 6 -5 10 -11 10 -5 0
-7 -4 -4 -10z"/>
<path d="M1976 1164 c18 -26 28 -27 18 -1 -3 8 -12 18 -20 21 -11 4 -11 0 2
-20z"/>
<path d="M1950 1160 c0 -5 5 -10 11 -10 5 0 7 5 4 10 -3 6 -8 10 -11 10 -2 0
-4 -4 -4 -10z"/>
<path d="M2481 1130 c-13 -11 -19 -20 -14 -20 6 0 18 9 28 20 23 25 17 25 -14
0z"/>
<path d="M2075 1129 c-4 -6 -5 -12 -2 -15 2 -3 7 2 10 11 7 17 1 20 -8 4z"/>
<path d="M2410 1129 c0 -5 5 -7 10 -4 6 3 10 8 10 11 0 2 -4 4 -10 4 -5 0 -10
-5 -10 -11z"/>
<path d="M2120 1119 c0 -5 5 -7 10 -4 6 3 10 8 10 11 0 2 -4 4 -10 4 -5 0 -10
-5 -10 -11z"/>
<path d="M1700 1117 c0 -17 51 -113 76 -141 38 -43 39 -25 0 20 -18 21 -31 45
-28 53 3 9 0 11 -8 6 -10 -6 -12 -2 -7 16 4 13 7 28 7 32 0 5 5 5 10 2 6 -3
10 -2 10 4 0 5 -8 9 -19 8 -13 -1 -17 -7 -14 -22 4 -17 2 -16 -11 5 -8 14 -15
21 -16 17z"/>
<path d="M2520 1105 c-11 -13 -10 -14 4 -9 9 3 16 10 16 15 0 13 -6 11 -20 -6z"/>
<path d="M2395 1090 c3 -5 8 -10 11 -10 2 0 4 5 4 10 0 6 -5 10 -11 10 -5 0
-7 -4 -4 -10z"/>
<path d="M2435 1090 c-3 -5 -2 -10 4 -10 5 0 13 5 16 10 3 6 2 10 -4 10 -5 0
-13 -4 -16 -10z"/>
<path d="M1874 1064 c-18 -14 -18 -15 4 -4 21 10 27 7 23 -14 -1 -5 5 -6 12
-3 9 3 20 -4 27 -19 13 -23 30 -32 30 -16 0 9 -63 72 -71 72 -3 0 -14 -7 -25
-16z"/>
<path d="M2463 1073 c-7 -3 -13 -9 -13 -15 0 -7 4 -7 13 1 10 8 17 7 25 -1 6
-6 14 -10 16 -7 8 8 -28 26 -41 22z"/>
<path d="M2182 1047 c-8 -10 -6 -13 7 -13 11 0 17 6 14 13 -3 7 -6 13 -8 13
-1 0 -7 -6 -13 -13z"/>
<path d="M1800 1025 c6 -8 9 -18 7 -22 -3 -5 3 -9 13 -9 18 0 18 2 -2 23 -24
25 -38 32 -18 8z"/>
<path d="M1893 1024 c17 -9 26 -21 23 -29 -3 -9 0 -12 10 -8 7 3 14 8 14 12 0
8 -54 41 -67 41 -4 -1 5 -8 20 -16z"/>
<path d="M2427 1016 c-3 -8 17 -35 48 -65 44 -43 55 -49 65 -36 12 15 6 35
-11 35 -5 0 -9 -5 -9 -11 0 -5 5 -7 12 -3 7 4 8 3 4 -5 -6 -9 -12 -9 -24 1
-30 24 -44 38 -35 38 4 0 0 5 -10 11 -9 6 -15 14 -12 20 3 5 -2 6 -12 3 -16
-5 -16 -4 1 10 16 13 17 16 4 16 -9 0 -18 -6 -21 -14z"/>
<path d="M2490 1016 c0 -2 8 -10 18 -17 15 -13 16 -12 3 4 -13 16 -21 21 -21
13z"/>
<path d="M1976 993 c-10 -10 -7 -25 3 -18 5 3 16 -3 23 -12 7 -10 22 -25 33
-33 19 -14 19 -14 6 5 -25 34 -59 64 -65 58z"/>
<path d="M2251 986 c-9 -11 -9 -16 1 -22 7 -4 10 -4 6 1 -4 4 -3 14 3 22 6 7
9 13 6 13 -2 0 -10 -6 -16 -14z"/>
<path d="M1813 957 c3 -32 74 -92 155 -130 61 -28 85 -34 187 -44 l50 -5 -19
21 c-11 12 -26 19 -33 16 -8 -2 -25 2 -38 11 -14 9 -30 12 -37 8 -7 -5 -29 -9
-49 -10 l-36 -2 24 26 c27 29 17 52 -14 33 -16 -11 -16 -11 5 -6 21 6 22 5 10
-14 -8 -14 -22 -20 -40 -19 -15 1 -24 6 -21 11 3 4 12 6 21 2 9 -3 13 -2 8 2
-4 4 -24 8 -44 8 -30 0 -37 4 -37 20 0 15 -6 19 -25 18 -24 -3 -24 -2 9 25 27
23 31 30 18 35 -10 4 -14 2 -11 -6 4 -13 -44 -40 -57 -31 -5 3 -9 14 -9 24 0
10 -4 21 -9 25 -6 3 -9 -5 -8 -18z m87 -67 c0 -5 -4 -10 -10 -10 -5 0 -10 5
-10 10 0 6 5 10 10 10 6 0 10 -4 10 -10z m200 -69 c0 -5 17 -14 38 -20 l37
-10 -35 4 c-19 3 -52 7 -73 9 -21 2 -41 7 -45 11 -4 4 5 5 20 1 15 -3 30 -2
33 4 8 12 25 13 25 1z"/>
<path d="M1983 954 c3 -4 2 -16 -4 -28 -10 -20 -10 -20 5 -2 19 24 20 36 4 36
-6 0 -8 -3 -5 -6z"/>
<path d="M1947 939 c7 -7 15 -10 18 -7 3 3 -2 9 -12 12 -14 6 -15 5 -6 -5z"/>
<path d="M2000 927 c0 -3 12 -12 26 -22 15 -9 23 -12 20 -6 -7 11 -46 35 -46
28z"/>
<path d="M2060 913 c0 -7 4 -14 10 -18 5 -3 8 -11 6 -18 -1 -7 -1 -9 1 -5 3 5
18 -6 35 -22 48 -49 43 -28 -7 25 -25 27 -45 44 -45 38z"/>
<path d="M2320 897 c-12 -21 -12 -21 6 -7 10 8 20 15 22 16 2 1 -1 4 -5 7 -5
3 -15 -4 -23 -16z"/>
<path d="M1926 897 c3 -10 9 -15 12 -12 3 3 0 11 -7 18 -10 9 -11 8 -5 -6z"/>
<path d="M2357 873 c3 -7 8 -13 12 -13 4 0 8 6 8 13 0 8 -6 14 -13 14 -7 0
-10 -6 -7 -14z"/>
<path d="M2230 874 c0 -1 8 -8 17 -15 14 -12 16 -12 8 0 -6 11 -4 13 9 8 9 -4
15 -3 11 2 -4 8 -45 12 -45 5z"/>
<path d="M2278 843 c-7 -9 -7 -13 2 -13 7 0 10 -8 8 -18 -4 -13 1 -18 16 -20
11 0 16 2 10 6 -13 8 -30 57 -18 50 5 -3 18 -2 29 3 17 6 15 7 -8 6 -16 -1
-33 -7 -39 -14z"/>
</g>
</svg>
