<?xml version="1.0" standalone="no"?>
<!DOCTYPE svg PUBLIC "-//W3C//DTD SVG 20010904//EN"
 "http://www.w3.org/TR/2001/REC-SVG-20010904/DTD/svg10.dtd">
<svg version="1.0" xmlns="http://www.w3.org/2000/svg"
 width="700.000000pt" height="700.000000pt" viewBox="0 0 700.000000 700.000000"
 preserveAspectRatio="xMidYMid meet">
<metadata>
Created by potrace 1.11, written by Peter Selinger 2001-2013
</metadata>
<g transform="translate(0.000000,700.000000) scale(0.100000,-0.100000)"
fill="#000000" stroke="none">
<path d="M3400 5854 c-22 -9 -276 -256 -705 -684 l-670 -670 -545 -2 c-608 -3
-579 0 -653 -75 -77 -76 -72 -12 -72 -923 0 -911 -5 -847 72 -923 74 -75 45
-72 653 -75 l545 -2 670 -670 c467 -466 681 -674 707 -685 46 -19 148 -20 192
-1 46 19 104 72 129 120 l22 41 0 2195 0 2195 -22 41 c-25 48 -83 101 -129
120 -44 18 -150 17 -194 -2z"/>
<path d="M4853 5344 c-52 -19 -119 -82 -144 -137 -34 -76 -22 -177 28 -245 28
-37 52 -53 216 -145 167 -93 264 -166 380 -287 206 -213 332 -460 394 -768 24
-121 24 -403 0 -524 -43 -213 -119 -402 -233 -573 -74 -112 -237 -282 -343
-359 -44 -32 -133 -87 -198 -123 -164 -92 -188 -108 -216 -145 -50 -68 -62
-169 -28 -245 39 -84 140 -153 225 -153 49 0 104 18 214 72 228 111 428 265
598 462 672 778 672 1874 0 2652 -170 197 -370 351 -598 462 -155 75 -210 86
-295 56z"/>
<path d="M4485 4429 c-103 -24 -185 -130 -185 -238 1 -104 47 -164 210 -276
109 -74 125 -89 166 -152 53 -83 69 -143 69 -263 0 -120 -16 -180 -69 -263
-41 -63 -57 -78 -166 -152 -163 -112 -209 -172 -210 -276 0 -150 147 -272 292
-240 159 36 369 194 479 361 128 194 187 398 176 615 -12 237 -99 450 -255
629 -103 117 -256 219 -378 251 -65 17 -72 17 -129 4z"/>
</g>
</svg>
